<svg xmlns="http://www.w3.org/2000/svg" viewBox="0 0 256 256">
<rect width="256" height="256" fill="#FFE5F0"/>
<rect x="16" y="16" width="224" height="224" fill="none" stroke="#4A90E2" stroke-width="8" rx="20"/>
<circle cx="128" cy="110" r="60" fill="#FFDEE9"/>
<path d="M 90 90 Q 70 60 60 50 Q 55 45 50 50 L 45 55 Q 40 65 45 75 Q 50 85 65 95 Z" fill="#8B4513"/>
<ellipse cx="128" cy="100" rx="50" ry="55" fill="#FFDEE9"/>
<circle cx="110" cy="95" r="8" fill="#2C1810"/>
<circle cx="146" cy="95" r="8" fill="#2C1810"/>
<circle cx="111" cy="93" r="3" fill="#FFFFFF"/>
<circle cx="147" cy="93" r="3" fill="#FFFFFF"/>
<path d="M 118 110 Q 128 115 138 110" fill="none" stroke="#FF9EBB" stroke-width="2" stroke-linecap="round"/>
<ellipse cx="100" cy="105" rx="8" ry="6" fill="#FFB3D9" opacity="0.6"/>
<ellipse cx="156" cy="105" rx="8" ry="6" fill="#FFB3D9" opacity="0.6"/>
<path d="M 128 60 Q 100 55 85 65 Q 75 72 75 85 Q 75 95 85 100 L 128 110 Z" fill="#8B4513"/>
<path d="M 128 60 Q 156 55 171 65 Q 181 72 181 85 Q 181 95 171 100 L 128 110 Z" fill="#8B4513"/>
<ellipse cx="180" cy="130" rx="25" ry="35" fill="#8B4513"/>
<rect x="175" y="145" width="10" height="50" fill="#8B4513" rx="5"/>
<circle cx="180" cy="200" r="12" fill="#FF9EBB"/>
</svg>